# xmcd
#
# Track frame offsets: 
#        150
#        18095
#        38467
#        60295
#        77198
#        105431
#        125037
#        145182
#        169357
#        193940
#        209436
#        242395
#        277608
#        300637
#
# Disc length: 4428 seconds
#
# Revision: 1
# Processed by: cddbd v1.5.2PL0 Copyright (c) Steve Scherf et al.
# Submitted via: ExactAudioCopy v1.0b1
#
DISCID=b1114a0e
DTITLE=52nd Street - Children Of The Night
DYEAR=1985
DGENRE=R&B
TTITLE0=Tell Me (How It Feels)
TTITLE1=Never Give Up On You
TTITLE2=You're My Last Chance
TTITLE3=Abandon Love
TTITLE4=Children Of The Night
TTITLE5=Look I've Heard
TTITLE6=I Can't Let You Go
TTITLE7=Smiling Eyes
TTITLE8=I'm Available
TTITLE9=Le's Celebrate
TTITLE10=Tell Me How It Feels (Extended Remix)
TTITLE11=Express
TTITLE12=Look Into My Eyes
TTITLE13=Cool As Ice (Jellybean Mix)
EXTD=YEAR: 1985
EXTT0=
EXTT1=
EXTT2=
EXTT3=
EXTT4=
EXTT5=
EXTT6=
EXTT7=
EXTT8=
EXTT9=
EXTT10=
EXTT11=
EXTT12=
EXTT13=
PLAYORDER=
